#N canvas 928 323 609 417 10;
#X obj 100 101 cnv 15 100 250 empty empty HighFrequencyCut 7 12 1 10
-66577 -257985 0;
#X obj 121 318 tgl 15 0 activate-highfreq activate-hp On/Off -10 22
0 10 -260097 -1 -262144 0 1;
#X obj 122 138 vsl 30 160 0 10000 0 0 empty hpf-frequency empty 0 -9
0 10 -257985 -1 -1 0 1;
#X floatatom 162 206 5 0 0 0 - - -;
#X obj 170 317 bng 15 250 50 0 empty freq-reset RESET -7 22 0 10 -4032
-1 -262144;
#X text 125 281 0 Hz;
#X text 119 135 10000Hz;
#X obj 228 265 loadbang;
#X msg 228 331 \; hpf-frequency 0;
#X obj 408 95 inlet~;
#X obj 447 228 hip~;
#X obj 409 157 spigot~;
#X obj 408 309 outlet~;
#X obj 448 123 r activate-highfreq;
#X obj 234 221 s \$0highfr;
#X obj 503 211 r \$0highfr;
#X connect 2 0 3 0;
#X connect 3 0 14 0;
#X connect 4 0 8 0;
#X connect 7 0 8 0;
#X connect 9 0 11 0;
#X connect 10 0 12 0;
#X connect 11 0 12 0;
#X connect 11 1 10 0;
#X connect 13 0 11 1;
#X connect 15 0 10 1;
#X coords 0 -1 1 1 100 250 2 100 100;
