#N canvas 83 216 551 661 10;
#X obj 168 28 loadbang;
#X msg 28 208 0.5;
#X msg 28 162 50;
#X msg 168 72 0;
#X obj 358 142 inlet;
#X obj 357 191 inlet;
#X obj 358 107 inlet;
#X obj 168 124 hradio 15 1 0 2 empty empty empty 0 -8 0 10 -261234
-1 -1 0;
#X text 135 122 sine;
#X text 204 122 square;
#X obj 278 124 bng 15 250 50 0 empty empty empty 17 7 0 10 -258113
-1 -1;
#X text 297 120 RESET;
#X obj 143 160 hsl 128 15 0 50 0 0 empty empty SPEED -2 -8 0 10 -262144
-1 -1 0 1;
#X obj 143 209 hsl 128 15 0 1 0 0 empty empty DEPTH -2 -8 0 10 -262144
-1 -1 0 1;
#X text 137 174 0;
#X text 266 174 50;
#X text 137 224 0;
#X text 268 225 1;
#X floatatom 283 159 5 0 0 0 - - -;
#X floatatom 284 208 5 0 0 0 - - -;
#X obj 449 175 outlet;
#X obj 448 224 outlet;
#X obj 449 196 send spd;
#X obj 448 251 send depth;
#X obj 35 301 receive spd;
#X obj 35 346 osc~;
#X obj 34 383 spigot~;
#X obj 74 430 *~ 100000;
#X obj 75 469 clip~ -1 1;
#X obj 35 526 *~;
#X obj 87 509 receive depth;
#X obj 36 575 outlet~;
#X msg 127 329 0;
#X obj 29 139 send type;
#X obj 127 366 receive type;
#X obj 448 139 send reset;
#X obj 127 301 receive reset;
#X connect 0 0 3 0;
#X connect 0 0 2 0;
#X connect 0 0 1 0;
#X connect 1 0 13 0;
#X connect 2 0 12 0;
#X connect 3 0 7 0;
#X connect 4 0 18 0;
#X connect 5 0 19 0;
#X connect 6 0 10 0;
#X connect 7 0 33 0;
#X connect 10 0 0 0;
#X connect 10 0 35 0;
#X connect 12 0 18 0;
#X connect 13 0 19 0;
#X connect 18 0 20 0;
#X connect 18 0 22 0;
#X connect 19 0 21 0;
#X connect 19 0 23 0;
#X connect 24 0 25 0;
#X connect 25 0 26 0;
#X connect 26 0 29 0;
#X connect 26 1 27 0;
#X connect 27 0 28 0;
#X connect 28 0 29 0;
#X connect 29 0 31 0;
#X connect 30 0 29 1;
#X connect 32 0 25 1;
#X connect 34 0 26 1;
#X connect 36 0 32 0;
#X coords 0 -1 1 1 250 150 1 100 100;
