#N canvas 1092 330 672 465 10;
#X obj 100 100 cnv 15 100 250 empty empty LowFrequencyCut 7 12 1 10
-66577 -257985 0;
#X obj 121 317 tgl 15 0 activate_lowfreq activate-hp On/Off -10 22
0 10 -260097 -1 -262144 0 1;
#X obj 122 138 vsl 30 160 0 10000 0 0 empty lowfreq empty 0 -9 0 10
-257985 -1 -1 7950 1;
#X floatatom 162 205 5 0 0 0 - - -;
#X obj 170 316 bng 15 250 50 0 empty lp-reset RESET -7 22 0 10 -4032
-1 -262144;
#X text 125 285 0 Hz;
#X text 119 134 10000Hz;
#X obj 228 264 loadbang;
#X obj 418 105 inlet~;
#X obj 419 167 spigot~;
#X obj 458 238 lop~;
#X obj 418 319 outlet~;
#X obj 458 133 r activate_lowfreq;
#X obj 221 221 s lowfr;
#X obj 513 221 r lowfr;
#X msg 228 330 \; lowfreq 5000;
#X connect 2 0 3 0;
#X connect 3 0 13 0;
#X connect 4 0 15 0;
#X connect 7 0 15 0;
#X connect 8 0 9 0;
#X connect 9 0 11 0;
#X connect 9 1 10 0;
#X connect 10 0 11 0;
#X connect 12 0 9 1;
#X connect 14 0 10 1;
#X coords 0 -1 1 1 100 250 1 100 100;
