#N canvas 419 42 755 855 10;
#X obj 3 5 cnv 15 750 850 empty empty empty 20 12 0 14 -162280 -66577
0;
#X obj 442 807 output~;
#X obj 16 181 HighFilter~;
#X obj 234 181 Reverb~;
#X obj 123 440 RingMod~;
#X obj 332 440 Tremolo~;
#X obj 441 180 Vibrato~;
#X obj 17 441 LowFilter~;
#X obj 24 152 s~ pass1;
#X obj 17 691 s~ pass2;
#X obj 124 165 r~ pass2;
#X obj 123 690 s~ pass3;
#X obj 233 164 r~ pass3;
#X obj 332 690 s~ pass4;
#X obj 441 164 r~ pass4;
#X obj 692 691 r~ pass1;
#X obj 124 181 FreqMod~;
#X obj 542 440 Bandpass~;
#X obj 16 18 Input~;
#X obj 517 807 wsprobe~;
#X obj 443 706 Mixer~;
#X text 18 812 By Hubert Baran and Jakub Wielgorski;
#X connect 2 0 7 0;
#X connect 3 0 5 0;
#X connect 4 0 11 0;
#X connect 5 0 13 0;
#X connect 6 0 17 0;
#X connect 7 0 9 0;
#X connect 10 0 16 0;
#X connect 12 0 3 0;
#X connect 14 0 6 0;
#X connect 15 0 20 1;
#X connect 16 0 4 0;
#X connect 17 0 20 0;
#X connect 18 0 2 0;
#X connect 18 0 8 0;
#X connect 20 0 1 0;
#X connect 20 0 1 1;
#X connect 20 0 19 0;
