#N canvas 755 389 889 447 10;
#X obj 101 101 cnv 15 300 100 empty empty Mixer 20 12 0 14 -66577 -257985
0;
#X obj 123 133 hsl 256 40 0 100 0 0 empty mixerv empty -2 -8 0 10 -257985
-1 -1 0 1;
#X obj 509 312 outlet~;
#X obj 554 228 *~ 0;
#X obj 466 226 *~ 0;
#X obj 508 267 +~;
#X msg 575 82 100;
#X msg 502 80 0;
#X obj 575 112 -;
#X obj 487 109 +;
#X floatatom 487 142 5 0 0 0 - - -;
#X floatatom 575 143 5 0 0 0 - - -;
#X obj 487 171 / 100;
#X obj 575 171 / 100;
#X floatatom 487 198 5 0 0 0 - - -;
#X floatatom 575 202 5 0 0 0 - - -;
#X obj 467 35 inlet~;
#X obj 555 29 inlet~;
#X obj 120 223 send \$0mixval;
#X obj 518 -2 receive \$0mixval;
#X text 322 144 Modified;
#X text 127 144 Original;
#X obj 292 227 loadbang;
#X msg 292 299 \; mixerv 0;
#X connect 1 0 18 0;
#X connect 3 0 5 1;
#X connect 4 0 5 0;
#X connect 5 0 2 0;
#X connect 6 0 8 0;
#X connect 7 0 9 1;
#X connect 8 0 11 0;
#X connect 9 0 10 0;
#X connect 10 0 12 0;
#X connect 11 0 13 0;
#X connect 12 0 14 0;
#X connect 13 0 15 0;
#X connect 14 0 4 1;
#X connect 15 0 3 1;
#X connect 16 0 4 0;
#X connect 17 0 3 0;
#X connect 19 0 7 0;
#X connect 19 0 6 0;
#X connect 19 0 9 0;
#X connect 19 0 8 1;
#X connect 22 0 23 0;
#X coords 0 -1 1 1 300 100 1 100 100;
