#N canvas 703 219 1062 618 10;
#X obj 738 366 hilbert~;
#X obj 588 422 *~;
#X obj 634 421 *~;
#X obj 589 454 -~;
#X obj 587 365 cos~;
#X obj 633 365 cos~;
#X obj 588 299 phasor~;
#X obj 633 329 +~ -0.25;
#X obj 698 325 spigot~;
#X obj 699 501 outlet~;
#X obj 699 269 inlet~;
#X obj 587 227 sig~;
#X obj 587 168 +;
#X obj 588 259 +~;
#X obj 699 70 osc~;
#X obj 699 150 clip~ -1 1;
#X obj 698 228 *~;
#X obj 698 105 *~;
#X obj 759 25 loadbang;
#X msg 759 51 1;
#X floatatom 759 89 5 0 0 0 - - -;
#X text 126 10 comment;
#X obj 587 107 r \$0vibrfreq;
#X obj 603 133 r \$0vibrspd;
#X obj 713 187 r \$0vibrdepth;
#X obj 737 296 r \$0activate-vibrato;
#X obj 101 101 cnv 15 300 250 empty empty Vibrato 120 12 1 15 -66577
-257985 0;
#X obj 121 317 tgl 15 0 \$0activate-vibrato activate-vibrato On/Off
-10 22 0 10 -260097 -1 -262144 1 1;
#X floatatom 163 207 5 0 0 0 - - -;
#X obj 366 318 bng 15 250 50 0 empty freq-reset RESET -7 22 0 10 -4032
-1 -262144;
#X obj 209 132 vsl 30 160 0 500 0 0 empty vibradepth empty 0 -9 0 10
-257985 -1 -1 0 1;
#X floatatom 250 205 5 0 0 0 - - -;
#X obj 429 233 loadbang;
#X text 218 276 0;
#X obj 303 131 vsl 30 160 -1000 1000 0 0 empty vibrashift empty 0 -9
0 10 -257985 -1 -1 7950 1;
#X floatatom 347 205 5 0 0 0 - - -;
#X obj 117 132 vsl 30 160 0 50 0 0 empty vibraspeed empty 0 -9 0 10
-257985 -1 -1 0 1;
#X text 124 277 0;
#X text 114 205 speed;
#X text 301 278 -1000;
#X text 305 131 1000;
#X text 207 204 depth;
#X obj 162 379 s \$0vibrspd;
#X obj 252 379 s \$0vibrdepth;
#X obj 347 379 s \$0vibrfreq;
#X msg 429 332 \; vibraspeed 0 \; vibradepth 0 \; vibrashift 0;
#X text 302 212 shift;
#X text 122 131 50;
#X text 213 131 500;
#X obj 699 1 r \$0vibrspd;
#X floatatom 587 199 5 0 0 0 - - -;
#X obj 204 57 bng 15 250 50 0 empty empty empty 17 7 0 10 -262144 -1
-1;
#X connect 0 0 1 1;
#X connect 0 1 2 1;
#X connect 1 0 3 0;
#X connect 2 0 3 1;
#X connect 3 0 9 0;
#X connect 4 0 1 0;
#X connect 5 0 2 0;
#X connect 6 0 7 0;
#X connect 6 0 4 0;
#X connect 7 0 5 0;
#X connect 8 0 9 0;
#X connect 8 1 0 0;
#X connect 10 0 8 0;
#X connect 11 0 13 0;
#X connect 12 0 50 0;
#X connect 13 0 6 0;
#X connect 14 0 17 0;
#X connect 15 0 16 0;
#X connect 16 0 13 1;
#X connect 17 0 15 0;
#X connect 18 0 19 0;
#X connect 19 0 20 0;
#X connect 20 0 17 1;
#X connect 22 0 12 0;
#X connect 23 0 12 1;
#X connect 24 0 16 1;
#X connect 25 0 8 1;
#X connect 28 0 42 0;
#X connect 28 0 51 0;
#X connect 29 0 45 0;
#X connect 30 0 31 0;
#X connect 31 0 43 0;
#X connect 32 0 45 0;
#X connect 34 0 35 0;
#X connect 35 0 44 0;
#X connect 36 0 28 0;
#X connect 49 0 14 0;
#X connect 50 0 11 0;
#X connect 51 0 34 0;
#X coords 0 -1 1 1 300 250 1 100 100;
